<svg xmlns="http://www.w3.org/2000/svg" viewBox="0 0 1200 1200" ><g data-name="9" fill="#000000" class="color000 svgShape"><path fill="#77e0b5" d="M695.75 925.19c0 24.2-51.83 43.81-115.77 43.81-61.91 0-112.47-18.39-115.62-41.51a14.68 14.68 0 0 1-.68-4.41V756.24a116 116 0 1 1 232 0V923.19a16.9 16.9 0 0 1 .07 2Z" class="color77e0b5 svgShape"></path><path fill="#4f3cc9" d="M580 972c-64 0-114.83-18.84-118.56-43.86a17.76 17.76 0 0 1-.74-5.06V756.24a119 119 0 0 1 238 0v166.87a20.7 20.7 0 0 1 .11 2.08C698.75 951.44 646.58 972 580 972Zm-.32-328.75a112.92 112.92 0 0 0-113 113v166.83a12 12 0 0 0 .54 3.51l.11.49C470.26 948.54 520.79 966 580 966c61.13 0 112.77-18.69 112.77-40.81a13 13 0 0 0-.1-1.63V756.24a113 113 0 0 0-113-113Zm119 280.27v.05s-.07-.03-.07-.05Zm-5.94-.82Z" class="color4f3cc9 svgShape"></path><path fill="#77e0b5" d="M298.44 406.92h18.77v112.64h-18.77z" transform="rotate(-9.26 307.88 463.302)" class="color77e0b5 svgShape"></path><path fill="#4f3cc9" d="m305.15 523.78-19.1-117.1 24.46-4 19.09 117.1Zm-12.21-112.14 17.16 105.25 12.61-2-17.16-105.31Z" class="color4f3cc9 svgShape"></path><path fill="#77e0b5" d="M299.37 495.69h38.59v61.54h-38.59z" transform="rotate(-9.26 318.727 526.574)" class="color77e0b5 svgShape"></path><path fill="#4f3cc9" d="m302.09 563.38-10.86-66.66 44-7.17 10.87 66.65Zm-4-61.7 8.94 54.81 32.17-5.24-8.94-54.82Z" class="color4f3cc9 svgShape"></path><path fill="#4f3cc9" d="M326.27 462h45.89v114.73h-45.89z" transform="rotate(-9.26 349.255 519.476)" class="color4f3cc9 svgShape"></path><path fill="#77e0b5" d="M748.29 333.56h18.77V446.2h-18.77z" transform="rotate(-9.26 757.845 389.933)" class="color77e0b5 svgShape"></path><path fill="#4f3cc9" d="m755 450.42-19.09-117.09 24.45-4 19.09 117.1Zm-12.21-112.14L760 443.54l12.61-2.06-17.21-105.25Z" class="color4f3cc9 svgShape"></path><path fill="#77e0b5" d="M748.19 422.51h38.59v61.54h-38.59z" transform="rotate(-9.26 767.623 453.367)" class="color77e0b5 svgShape"></path><path fill="#4f3cc9" d="m750.92 490.19-10.87-66.66 44-7.17L794.93 483Zm-4-61.7 8.94 54.81 32.14-5.24-8.94-54.81Z" class="color4f3cc9 svgShape"></path><path fill="#4f3cc9" d="M713.32 398.89h45.89v114.73h-45.89z" transform="matrix(.99 -.16 .16 .99 -63.83 124.44)" class="color4f3cc9 svgShape"></path><path fill="#4f3cc9" d="M467.48 325.51H577v40.68H467.48z" transform="rotate(-9.26 522.342 345.879)" class="color4f3cc9 svgShape"></path><path fill="#4f3cc9" d="M530.86 340.06c-.38-1.78-9.05-43.83 7.86-63.75a27.93 27.93 0 0 1 16.09-9.45c3-6.3 9.36-13.12 21.65-19.23a39.26 39.26 0 0 1 28.35-2.52c.91-.69 1.87-1.39 2.91-2.09l.29-.17c.34-.18 34.7-17.75 56.69 10.85l-4.7 3.66c-7.93-10.31-18.57-15-31.61-14a51.76 51.76 0 0 0-16.67 4.33 35.4 35.4 0 0 1 3.78 2.17c6.58 4.38 10.14 10.09 9.78 15.67-.22 3.47-2.08 8.39-9.69 12.14-6.3 3.11-16.1-.58-20.17-7.58-1.89-3.26-4.53-10.84 4-20.08a33.4 33.4 0 0 0-20.29 2.99c-7.77 3.86-13.47 8.32-16.93 13.13h2.24c8.22.39 23.95 11.53 25.56 22.26.54 3.6-.09 10.17-10.41 13.88-8.54 3.06-20.61-4.22-25.32-15.29a24.5 24.5 0 0 1-1.61-13.36 21.65 21.65 0 0 0-9.37 6.52c-15 17.7-6.65 58.21-6.56 58.62Zm28.19-67.78a17.56 17.56 0 0 0 .74 12.4c3.65 8.58 12.83 13.76 17.77 12 7.22-2.59 6.69-6.16 6.51-7.33-1.13-7.53-14-16.89-19.9-17.16a37.46 37.46 0 0 0-5.12.09Zm47-20.43c-6.08 5.43-8.1 10.84-5.52 15.27s9.17 6.78 12.33 5.22c2.78-1.37 6.13-3.72 6.35-7.15.22-3.28-2.51-7.22-7.12-10.28a29.45 29.45 0 0 0-6.01-3.06ZM506.56 348.13a93.75 93.75 0 0 0-9-34.19c-11.29-23.36-30.62-37.7-57.45-42.62l1.08-5.9c36 6.6 53.52 28.72 61.87 46.12a97.73 97.73 0 0 1 9.49 36.46ZM662.12 674.68l-187.45 32.23a116 116 0 0 1 187.45-32.23Z" class="color4f3cc9 svgShape"></path><rect width="379.66" height="317.07" x="355.94" y="347.8" fill="#77e0b5" rx="29.67" transform="rotate(-9.26 545.88 506.44)" class="color77e0b5 svgShape"></rect><path fill="#4f3cc9" d="M408.37 692a32.68 32.68 0 0 1-32.18-27.42l-41.48-254.39a32.72 32.72 0 0 1 27-37.51l316.13-51.55a32.72 32.72 0 0 1 37.51 27l41.48 254.37a32.72 32.72 0 0 1-27 37.51l-316.14 51.54a32.9 32.9 0 0 1-5.32.45Zm274.74-365.3a27.42 27.42 0 0 0-4.31.35L362.66 378.6a26.71 26.71 0 0 0-22 30.62l41.48 254.37a26.67 26.67 0 0 0 30.62 22l316.13-51.55a26.69 26.69 0 0 0 22-30.62l-41.47-254.33a26.73 26.73 0 0 0-26.31-22.39Z" class="color4f3cc9 svgShape"></path><path fill="#ffffff" d="m366.35 375 51 313-4.17.68a29.68 29.68 0 0 1-34.06-24.52l-41.45-254.45a29.68 29.68 0 0 1 24.51-34.07Z" class="colorfff svgShape"></path><path fill="#4f3cc9" d="M408.37 692a32.68 32.68 0 0 1-32.18-27.42l-41.48-254.39a32.72 32.72 0 0 1 27-37.51l7.13-1.16 52 318.86-7.13 1.17a33 33 0 0 1-5.34.45Zm-44.5-313.57-1.21.19a26.71 26.71 0 0 0-22 30.62l41.48 254.37a26.67 26.67 0 0 0 30.62 22l1.21-.19Z" class="color4f3cc9 svgShape"></path><path fill="#ffffff" d="M712.38 348.6 753.86 603a29.68 29.68 0 0 1-24.52 34l-4.16.68-51-312.94 4.17-.68a29.69 29.69 0 0 1 34.03 24.54Z" class="colorfff svgShape"></path><path fill="#4f3cc9" d="m722.7 641.16-52-318.87 7.13-1.16a32.71 32.71 0 0 1 37.51 27l41.48 254.37a32.72 32.72 0 0 1-27 37.51Zm-45.11-313.91 50.06 307 1.21-.2a26.69 26.69 0 0 0 22-30.62l-41.44-254.34a26.7 26.7 0 0 0-30.62-22Z" class="color4f3cc9 svgShape"></path><circle cx="355.5" cy="412.14" r="7.82" fill="#4f3cc9" class="color4f3cc9 svgShape"></circle><circle cx="696.24" cy="356.57" r="7.82" fill="#4f3cc9" class="color4f3cc9 svgShape"></circle><circle cx="395.45" cy="657.14" r="7.82" fill="#4f3cc9" class="color4f3cc9 svgShape"></circle><circle cx="736.19" cy="601.57" r="7.82" fill="#4f3cc9" class="color4f3cc9 svgShape"></circle><path fill="#ffffff" d="m487.01 438.42-18.81-13.13-22.8 32.65-31.99-23.72-13.67 18.43 32.52 24.11-23.17 33.2 18.81 13.13 22.8-32.65 31.99 23.72 13.67-18.43-32.52-24.12 23.17-33.19z" class="colorfff svgShape"></path><path fill="#4f3cc9" d="m428.65 527.27-23.74-16.57 23.22-33.26-32.58-24.17L412.79 430l31.92 23.67 22.75-32.58 23.73 16.57L468 470.94l32.59 24.16-17.24 23.25-31.93-23.67Zm-15.38-18.06 13.89 9.71L450 486.19 482.07 510l10.09-13.61-32.45-24.06 23.13-33.13-13.9-9.7-22.85 32.73L414 438.42 403.94 452l32.45 24.06Z" class="color4f3cc9 svgShape"></path><path fill="#ffffff" d="m678.57 466.01-32.52-24.11 23.17-33.19-18.81-13.14-22.8 32.66-31.99-23.72-13.67 18.43 32.52 24.11-23.18 33.2 18.82 13.13 22.8-32.65 31.99 23.72 13.67-18.44z" class="colorfff svgShape"></path><path fill="#4f3cc9" d="M610.85 497.56 587.12 481l23.22-33.26-32.59-24.17L595 400.31 626.92 424l22.74-32.58L673.4 408l-23.22 33.26 32.58 24.16-17.24 23.25L633.6 465Zm-15.38-18.06 13.9 9.7 22.84-32.72 32.06 23.77 10.1-13.61-32.45-24.06L665 409.45l-13.89-9.7-22.81 32.73-32.06-23.78-10.09 13.62 32.45 24.06Z" class="color4f3cc9 svgShape"></path><path fill="#4f3cc9" d="M433.21 573.03h250.32v8.34H433.21z" transform="rotate(-9.26 558.246 577.044)" class="color4f3cc9 svgShape"></path><circle cx="746.36" cy="317.22" r="30.25" fill="#4f3cc9" class="color4f3cc9 svgShape"></circle><path fill="#f582ae" d="m596.91 599.63-4.56-28 63.48-10.35 4.56 28a32.16 32.16 0 0 1-26.57 36.91 32.14 32.14 0 0 1-36.91-26.56Z" class="colorf582ae svgShape"></path><path fill="#4f3cc9" d="M628.57 629.62a35.19 35.19 0 0 1-34.63-29.51l-5-30.93 69.4-11.31 5.05 30.92a35.17 35.17 0 0 1-29.05 40.36 35.81 35.81 0 0 1-5.77.47Zm-28.7-30.48a29.15 29.15 0 1 0 57.55-9.38l-4.07-25-57.56 9.39Z" class="color4f3cc9 svgShape"></path><circle cx="295.48" cy="390.75" r="30.25" fill="#4f3cc9" class="color4f3cc9 svgShape"></circle><path fill="#4f3cc9" d="M623.02 566.38h6.26v34.68h-6.26z" transform="rotate(-9.46 626.369 583.894)" class="color4f3cc9 svgShape"></path><path fill="#4f3cc9" d="M883.91 920c-7.61 0-14.39-1.88-18.8-4.49a50.6 50.6 0 0 1-8-5.76c-7.53 4.62-16.16 7.39-24.07 6.49a30.93 30.93 0 0 1-13.2-4.39 35.56 35.56 0 0 1-10.58 4.66c-10.83 2.78-21.38 0-27.62-4.18-17.2 7.29-31.21 7.81-41.66 1.52-15.37-9.23-16.93-29.53-17-30.39l6-.41c0 .18 1.44 18.08 14.13 25.68 8.18 4.9 19.41 4.63 33.41-.79a27.61 27.61 0 0 1-6.42-28.32c2.66-7.39 8.25-12 14.22-11.86 11.36.35 14.44 7.42 15.26 11.59 2 10-4.47 23.26-11.94 29.52a30 30 0 0 0 20.14 1.83 29.66 29.66 0 0 0 7.18-2.91 26 26 0 0 1-5.96-10.91c-3-11.08.28-24.85 7.21-30.08 3.77-2.84 11.81-3 17.32 1.33 3.53 2.79 8.57 9.52 2.58 23.34A48.12 48.12 0 0 1 825 907.88a26.34 26.34 0 0 0 8.77 2.43c6.06.69 12.93-1.44 19.13-5-7.1-9-6.52-18.48-2.59-25.52 4.65-8.36 13.36-12.92 19-10 6.94 3.63 9.58 10.1 7.23 17.74-2 6.44-7.36 13.29-14.3 18.7a47.11 47.11 0 0 0 6 4.12c6.41 3.8 18.7 5.38 29.8 1.07 6.59-2.56 15.26-8.3 19.16-21.12l5.74 1.75c-4.6 15.12-14.9 21.92-22.73 25a44.78 44.78 0 0 1-16.3 2.95ZM784 873.79c-3.23 0-6.52 3.14-8.23 7.89-2.27 6.31-1.75 16.06 6.67 23.65 6.33-4.06 12.9-16.55 11.27-24.79-.86-4.37-4-6.58-9.56-6.75Zm39.46-3a6.5 6.5 0 0 0-3.59.83c-4.41 3.33-7.57 14.41-5 23.71a20.07 20.07 0 0 0 5.11 9 41.26 41.26 0 0 0 10.7-15.22c2.31-5.32 4-12.45-.78-16.24a10.52 10.52 0 0 0-6.45-2.11Zm42 4.13c-2.53 0-7.08 2.75-9.89 7.8-1.92 3.43-4.57 11 2.33 19.31 6.27-4.71 11.23-10.72 12.92-16.21 1.5-4.88.1-8.38-4.28-10.67a2.36 2.36 0 0 0-1.13-.26Z" class="color4f3cc9 svgShape"></path><g fill="#000000" class="color000 svgShape"><path fill="#ffffff" d="M348.49 852.74v30.37c0 10.06 16.32 18.22 36.45 18.22s36.44-8.16 36.44-18.22v-30.37Z" class="colorfff svgShape"></path><path fill="#4f3cc9" d="M384.94 904.33c-22.12 0-39.45-9.32-39.45-21.23v-33.36h78.89v33.36c0 11.9-17.33 21.23-39.44 21.23Zm-33.45-48.59v27.36c0 7.2 13.74 15.23 33.45 15.23s33.44-8 33.44-15.23v-27.36Z" class="color4f3cc9 svgShape"></path><ellipse cx="384.94" cy="851.14" fill="#4f3cc9" rx="39.63" ry="19.82" class="color4f3cc9 svgShape"></ellipse><ellipse cx="384.94" cy="849.34" fill="#ffffff" rx="18.02" ry="9.01" class="colorfff svgShape"></ellipse></g></g></svg>